<?xml version="1.0" encoding="UTF-8" standalone="no"?>
<svg
   viewBox="0 0 24 24"
   version="1.1"
   id="svg2"
   sodipodi:docname="folder-publicshare.svg"
   inkscape:version="1.4 (1:1.4+202410161351+e7c3feb100)"
   xmlns:inkscape="http://www.inkscape.org/namespaces/inkscape"
   xmlns:sodipodi="http://sodipodi.sourceforge.net/DTD/sodipodi-0.dtd"
   xmlns="http://www.w3.org/2000/svg"
   xmlns:svg="http://www.w3.org/2000/svg">
  <sodipodi:namedview
     id="namedview2"
     pagecolor="#ffffff"
     bordercolor="#666666"
     borderopacity="1.0"
     inkscape:showpageshadow="2"
     inkscape:pageopacity="0.0"
     inkscape:pagecheckerboard="0"
     inkscape:deskcolor="#d1d1d1"
     inkscape:zoom="34.166667"
     inkscape:cx="12"
     inkscape:cy="12"
     inkscape:window-width="1920"
     inkscape:window-height="1019"
     inkscape:window-x="0"
     inkscape:window-y="0"
     inkscape:window-maximized="1"
     inkscape:current-layer="svg2" />
  <defs
     id="defs2">
    <linearGradient
       id="symbol"
       x1="0"
       y1="0"
       x2="0"
       y2="24"
       gradientUnits="userSpaceOnUse">
      <stop
         offset="0%"
         style="stop-color:#757575"
         id="stop1" />
      <!-- Gray 600 -->
      <stop
         offset="100%"
         style="stop-color:#616161"
         id="stop2" />
      <!-- Gray 700 -->
    </linearGradient>
  </defs>
  <path
     style="color:#232629;font-variation-settings:normal;opacity:1;vector-effect:none;fill:url(#symbol);fill-opacity:1;stroke:none;stroke-width:1;stroke-linecap:butt;stroke-linejoin:miter;stroke-miterlimit:4;stroke-dasharray:none;stroke-dashoffset:0;stroke-opacity:1;-inkscape-stroke:none;stop-color:#000000;stop-opacity:1"
     d="M 8.6153848,1 C 6.1333336,1 4.1025643,2.98 4.1025643,5.4 c 0,2.42 2.0307693,4.4 4.5128205,4.4 2.4820512,0 4.5128202,-1.98 4.5128202,-4.4 0,-2.42 -2.030769,-4.4 -4.5128202,-4.4 z M 18.769231,2.1 c -1.917949,0 -3.384616,1.43 -3.384616,3.3 0,1.87 1.466667,3.3 3.384616,3.3 1.917948,0 3.384615,-1.43 3.384615,-3.3 0,-1.87 -1.466667,-3.3 -3.384615,-3.3 z m 0,7.7 c -1.241026,0 -2.369231,0.44 -3.158975,1.32 2.17145,1.930239 3.001486,3.683669 3.158975,6.38 v 1.1 h 4.51282 v -4.4 c 0,-2.42 -2.030769,-4.4 -4.51282,-4.4 z M 8.6153848,10.9 c -4.4000001,0 -7.89743595,3.41 -7.89743595,7.7 V 23 H 16.512821 v -4.4 c 0,-4.29 -3.497436,-7.7 -7.8974362,-7.7 z"
     class="ColorScheme-Text"
     id="path5-6"
     sodipodi:nodetypes="sssssssssssccccssssccss" />
</svg>
