<?xml version="1.0" encoding="UTF-8" standalone="no"?>
<svg
   viewBox="0 0 64 64"
   version="1.1"
   id="svg5"
   sodipodi:docname="folder-publicshare.svg"
   inkscape:version="1.4 (1:1.4+202410161351+e7c3feb100)"
   xmlns:inkscape="http://www.inkscape.org/namespaces/inkscape"
   xmlns:sodipodi="http://sodipodi.sourceforge.net/DTD/sodipodi-0.dtd"
   xmlns="http://www.w3.org/2000/svg"
   xmlns:svg="http://www.w3.org/2000/svg">
  <sodipodi:namedview
     id="namedview5"
     pagecolor="#ffffff"
     bordercolor="#666666"
     borderopacity="1.0"
     inkscape:showpageshadow="2"
     inkscape:pageopacity="0.0"
     inkscape:pagecheckerboard="0"
     inkscape:deskcolor="#d1d1d1"
     inkscape:zoom="12.8125"
     inkscape:cx="48.546341"
     inkscape:cy="33.092683"
     inkscape:window-width="1920"
     inkscape:window-height="1019"
     inkscape:window-x="0"
     inkscape:window-y="0"
     inkscape:window-maximized="1"
     inkscape:current-layer="svg5" />
  <defs
     id="defs3051">
    <style
       type="text/css"
       id="current-color-scheme">
      .ColorScheme-Text {
        color:#232629;
      }
      .ColorScheme-Highlight {
        color:#3daee9;
      }
      </style>
    <linearGradient
       id="folder-front"
       x1="4.7067872"
       y1="25.495098"
       x2="4.7067872"
       y2="66.287254"
       gradientTransform="scale(1.2747549,0.78446454)"
       gradientUnits="userSpaceOnUse">
      <stop
         offset="0%"
         style="stop-color:#FFB300"
         id="stop1" />
      <!-- Blue 300 -->
      <stop
         offset="100%"
         style="stop-color:#FFA000"
         id="stop2" />
      <!-- Blue 400 -->
    </linearGradient>
  </defs>
  <path
     class="folder-back"
     d="M 6,14.67 A 2.67,2.67 0 0 1 8.67,12 H 24 c 2,0 2,0 4,2 l 4,4 H 55.33 A 2.67,2.67 0 0 1 58,20.67 v 2 A 2.67,2.67 0 0 0 55.33,20 H 8.67 A 2.67,2.67 0 0 0 6,22.67"
     id="path2"
     style="fill:#f57c00" />
  <rect
     class="folder-front"
     x="6"
     y="20"
     width="52"
     height="32"
     rx="2.6700001"
     ry="2.6700001"
     id="rect3"
     style="fill:url(#folder-front)" />
  <path
     class="lighten"
     d="M 8.67,20 A 2.67,2.67 0 0 0 6,22.67 2.67,1.67 0 0 1 8.67,21 H 55.33 A 2.67,1.67 0 0 1 58,22.67 2.67,2.67 0 0 0 55.33,20"
     id="path4"
     style="fill:#ffffff;fill-opacity:0.125" />
  <path
     style="font-variation-settings:normal;opacity:0.5;vector-effect:none;fill:#000000;fill-opacity:1;stroke:none;stroke-width:1;stroke-linecap:butt;stroke-linejoin:miter;stroke-miterlimit:4;stroke-dasharray:none;stroke-dashoffset:0;stroke-opacity:1;-inkscape-stroke:none;stop-color:#000000;stop-opacity:1"
     d="m 29,27 c -2.2,0 -4,1.8 -4,4 0,2.2 1.8,4 4,4 2.2,0 4,-1.8 4,-4 0,-2.2 -1.8,-4 -4,-4 z m 9,1 c -1.7,0 -3,1.3 -3,3 0,1.7 1.3,3 3,3 1.7,0 3,-1.3 3,-3 0,-1.7 -1.3,-3 -3,-3 z m 0,7 c -1.1,0 -2.1,0.4 -2.8,1.2 1.924693,1.754764 2.660409,3.34879 2.8,5.8 v 1 h 4 v -4 c 0,-2.2 -1.8,-4 -4,-4 z m -9,1 c -3.9,0 -7,3.1 -7,7 v 4 h 14 v -4 c 0,-3.9 -3.1,-7 -7,-7 z"
     class="ColorScheme-Text"
     id="path5"
     sodipodi:nodetypes="sssssssssssccccssssccss" />
</svg>
