<?xml version="1.0" encoding="UTF-8" standalone="no"?>
<svg
   viewBox="0 0 22 22"
   version="1.1"
   id="svg2"
   sodipodi:docname="folder-publicshare.svg"
   inkscape:version="1.4 (1:1.4+202410161351+e7c3feb100)"
   xmlns:inkscape="http://www.inkscape.org/namespaces/inkscape"
   xmlns:sodipodi="http://sodipodi.sourceforge.net/DTD/sodipodi-0.dtd"
   xmlns="http://www.w3.org/2000/svg"
   xmlns:svg="http://www.w3.org/2000/svg">
  <sodipodi:namedview
     id="namedview2"
     pagecolor="#ffffff"
     bordercolor="#666666"
     borderopacity="1.0"
     inkscape:showpageshadow="2"
     inkscape:pageopacity="0.0"
     inkscape:pagecheckerboard="0"
     inkscape:deskcolor="#d1d1d1"
     inkscape:zoom="37.272727"
     inkscape:cx="11"
     inkscape:cy="11"
     inkscape:window-width="1920"
     inkscape:window-height="1019"
     inkscape:window-x="0"
     inkscape:window-y="0"
     inkscape:window-maximized="1"
     inkscape:current-layer="svg2" />
  <defs
     id="defs2">
    <linearGradient
       id="symbol"
       x1="0"
       y1="0"
       x2="0"
       y2="22"
       gradientUnits="userSpaceOnUse">
      <stop
         offset="0%"
         style="stop-color:#757575"
         id="stop1" />
      <!-- Gray 600 -->
      <stop
         offset="100%"
         style="stop-color:#616161"
         id="stop2" />
      <!-- Gray 700 -->
    </linearGradient>
    <linearGradient
       id="symbol-2"
       x1="0"
       y1="0"
       x2="0"
       y2="24"
       gradientUnits="userSpaceOnUse"
       gradientTransform="matrix(0.97500002,0,0,1,-0.7000004,-0.99999974)">
      <stop
         offset="0%"
         style="stop-color:#757575"
         id="stop1-7" />
      <!-- Gray 600 -->
      <stop
         offset="100%"
         style="stop-color:#616161"
         id="stop2-0" />
      <!-- Gray 700 -->
    </linearGradient>
  </defs>
  <path
     style="color:#232629;font-variation-settings:normal;vector-effect:none;fill:url(#symbol-2);fill-opacity:1;stroke:none;stroke-width:0.987421;stroke-linecap:butt;stroke-linejoin:miter;stroke-miterlimit:4;stroke-dasharray:none;stroke-dashoffset:0;stroke-opacity:1;-inkscape-stroke:none;stop-color:#000000"
     d="m 7.7000001,2.5e-7 c -2.4199998,0 -4.4000006,1.97999995 -4.4000006,4.39999995 0,2.4200001 1.9800008,4.3999995 4.4000006,4.3999995 C 10.12,8.7999997 12.1,6.8200003 12.1,4.4000002 12.1,1.9800002 10.12,2.5e-7 7.7000001,2.5e-7 Z M 17.6,1.1000002 c -1.87,0 -3.300001,1.43 -3.300001,3.3 0,1.8700001 1.430001,3.2999999 3.300001,3.2999999 1.87,0 3.3,-1.4299998 3.3,-3.2999999 0,-1.87 -1.43,-3.3 -3.3,-3.3 z m 0,7.6999995 c -1.21,0 -2.31,0.44 -3.080001,1.3200003 2.117164,1.930239 2.92645,3.683669 3.080001,6.38 v 1.1 H 22 V 13.2 C 22,10.78 20.02,8.7999997 17.6,8.7999997 Z m -9.8999999,1.1 C 3.41,9.8999997 -2e-7,13.31 -2e-7,17.6 V 22 H 15.4 v -4.4 c 0,-4.29 -3.41,-7.7000002 -7.6999999,-7.7000003 z"
     class="ColorScheme-Text"
     id="path5-6"
     sodipodi:nodetypes="sssssssssssccccssssccss" />
</svg>
